G04 #@! TF.FileFunction,Profile,NP*
%FSLAX46Y46*%
G04 Gerber Fmt 4.6, Leading zero omitted, Abs format (unit mm)*
G04 Created by KiCad (PCBNEW 4.0.2+dfsg1-stable) date 2018年07月27日 15時19分14秒*
%MOMM*%
G01*
G04 APERTURE LIST*
%ADD10C,0.100000*%
%ADD11C,0.200000*%
G04 APERTURE END LIST*
D10*
D11*
X85585600Y-67244800D02*
X85585600Y-65744800D01*
X85085600Y-67244800D02*
X85585600Y-67244800D01*
X85585600Y-95244800D02*
X85585600Y-96744800D01*
X85085600Y-95244800D02*
X85585600Y-95244800D01*
X79085600Y-95244800D02*
X79085600Y-67244800D01*
X80085600Y-96244800D02*
X79085600Y-95244800D01*
X84085600Y-96244800D02*
X80085600Y-96244800D01*
X85085600Y-95244800D02*
X84085600Y-96244800D01*
X84085600Y-66244800D02*
X85085600Y-67244800D01*
X80085600Y-66244800D02*
X84085600Y-66244800D01*
X79085600Y-67244800D02*
X80085600Y-66244800D01*
X83485600Y-69744800D02*
G75*
G03X83485600Y-69744800I-1400000J0D01*
G01*
X83485600Y-92744800D02*
G75*
G03X83485600Y-92744800I-1400000J0D01*
G01*
X126585600Y-65744800D02*
X85585600Y-65744800D01*
X126585600Y-96744800D02*
X126585600Y-65744800D01*
X85585600Y-96744800D02*
X126585600Y-96744800D01*
X97485600Y-92744800D02*
G75*
G03X97485600Y-92744800I-1400000J0D01*
G01*
X97485600Y-69744800D02*
G75*
G03X97485600Y-69744800I-1400000J0D01*
G01*
X124985600Y-81244800D02*
G75*
G03X124985600Y-81244800I-1400000J0D01*
G01*
X89985600Y-81244800D02*
G75*
G03X89985600Y-81244800I-1400000J0D01*
G01*
X107485600Y-93744800D02*
G75*
G03X107485600Y-93744800I-1400000J0D01*
G01*
X107485600Y-68744800D02*
G75*
G03X107485600Y-68744800I-1400000J0D01*
G01*
X90985600Y-92744800D02*
G75*
G03X90985600Y-92744800I-1400000J0D01*
G01*
X123985600Y-92744800D02*
G75*
G03X123985600Y-92744800I-1400000J0D01*
G01*
X123985600Y-69744800D02*
G75*
G03X123985600Y-69744800I-1400000J0D01*
G01*
X90985600Y-69744800D02*
G75*
G03X90985600Y-69744800I-1400000J0D01*
G01*
X84150666Y-135924600D02*
G75*
G03X84150666Y-135924600I-1666666J0D01*
G01*
X79984000Y-135924600D02*
X84984000Y-135924600D01*
X82484000Y-133424600D02*
X82484000Y-138424600D01*
M02*
