G04 #@! TF.FileFunction,Legend,Bot*
%FSLAX46Y46*%
G04 Gerber Fmt 4.6, Leading zero omitted, Abs format (unit mm)*
G04 Created by KiCad (PCBNEW 4.0.2+dfsg1-stable) date 2018年07月27日 15時19分14秒*
%MOMM*%
G01*
G04 APERTURE LIST*
%ADD10C,0.100000*%
%ADD11C,0.080000*%
G04 APERTURE END LIST*
D10*
D11*
X117885600Y-84793848D02*
X117914171Y-84849086D01*
X117914171Y-84931943D01*
X117885600Y-85014801D01*
X117828457Y-85070039D01*
X117771314Y-85097658D01*
X117657029Y-85125277D01*
X117571314Y-85125277D01*
X117457029Y-85097658D01*
X117399886Y-85070039D01*
X117342743Y-85014801D01*
X117314171Y-84931943D01*
X117314171Y-84876705D01*
X117342743Y-84793848D01*
X117371314Y-84766229D01*
X117571314Y-84766229D01*
X117571314Y-84876705D01*
X117314171Y-84517658D02*
X117914171Y-84517658D01*
X117314171Y-84186229D01*
X117914171Y-84186229D01*
X117314171Y-83910039D02*
X117914171Y-83910039D01*
X117914171Y-83771944D01*
X117885600Y-83689086D01*
X117828457Y-83633848D01*
X117771314Y-83606229D01*
X117657029Y-83578610D01*
X117571314Y-83578610D01*
X117457029Y-83606229D01*
X117399886Y-83633848D01*
X117342743Y-83689086D01*
X117314171Y-83771944D01*
X117314171Y-83910039D01*
X117914171Y-82970991D02*
X117314171Y-82777658D01*
X117914171Y-82584324D01*
X117371314Y-82059562D02*
X117342743Y-82087181D01*
X117314171Y-82170038D01*
X117314171Y-82225276D01*
X117342743Y-82308134D01*
X117399886Y-82363372D01*
X117457029Y-82390991D01*
X117571314Y-82418610D01*
X117657029Y-82418610D01*
X117771314Y-82390991D01*
X117828457Y-82363372D01*
X117885600Y-82308134D01*
X117914171Y-82225276D01*
X117914171Y-82170038D01*
X117885600Y-82087181D01*
X117857029Y-82059562D01*
X117371314Y-81479562D02*
X117342743Y-81507181D01*
X117314171Y-81590038D01*
X117314171Y-81645276D01*
X117342743Y-81728134D01*
X117399886Y-81783372D01*
X117457029Y-81810991D01*
X117571314Y-81838610D01*
X117657029Y-81838610D01*
X117771314Y-81810991D01*
X117828457Y-81783372D01*
X117885600Y-81728134D01*
X117914171Y-81645276D01*
X117914171Y-81590038D01*
X117885600Y-81507181D01*
X117857029Y-81479562D01*
X117342743Y-80816705D02*
X117314171Y-80733848D01*
X117314171Y-80595752D01*
X117342743Y-80540514D01*
X117371314Y-80512895D01*
X117428457Y-80485276D01*
X117485600Y-80485276D01*
X117542743Y-80512895D01*
X117571314Y-80540514D01*
X117599886Y-80595752D01*
X117628457Y-80706229D01*
X117657029Y-80761467D01*
X117685600Y-80789086D01*
X117742743Y-80816705D01*
X117799886Y-80816705D01*
X117857029Y-80789086D01*
X117885600Y-80761467D01*
X117914171Y-80706229D01*
X117914171Y-80568133D01*
X117885600Y-80485276D01*
X117314171Y-80236705D02*
X117914171Y-80236705D01*
X117914171Y-80098610D01*
X117885600Y-80015752D01*
X117828457Y-79960514D01*
X117771314Y-79932895D01*
X117657029Y-79905276D01*
X117571314Y-79905276D01*
X117457029Y-79932895D01*
X117399886Y-79960514D01*
X117342743Y-80015752D01*
X117314171Y-80098610D01*
X117314171Y-80236705D01*
X117485600Y-79684324D02*
X117485600Y-79408133D01*
X117314171Y-79739562D02*
X117914171Y-79546229D01*
X117314171Y-79352895D01*
X117342743Y-78745276D02*
X117314171Y-78662419D01*
X117314171Y-78524323D01*
X117342743Y-78469085D01*
X117371314Y-78441466D01*
X117428457Y-78413847D01*
X117485600Y-78413847D01*
X117542743Y-78441466D01*
X117571314Y-78469085D01*
X117599886Y-78524323D01*
X117628457Y-78634800D01*
X117657029Y-78690038D01*
X117685600Y-78717657D01*
X117742743Y-78745276D01*
X117799886Y-78745276D01*
X117857029Y-78717657D01*
X117885600Y-78690038D01*
X117914171Y-78634800D01*
X117914171Y-78496704D01*
X117885600Y-78413847D01*
X117314171Y-78165276D02*
X117914171Y-78165276D01*
X117914171Y-78027181D01*
X117885600Y-77944323D01*
X117828457Y-77889085D01*
X117771314Y-77861466D01*
X117657029Y-77833847D01*
X117571314Y-77833847D01*
X117457029Y-77861466D01*
X117399886Y-77889085D01*
X117342743Y-77944323D01*
X117314171Y-78027181D01*
X117314171Y-78165276D01*
X117314171Y-77309085D02*
X117314171Y-77585276D01*
X117914171Y-77585276D01*
M02*
