M48
;DRILL file {KiCad 4.0.2+dfsg1-stable} date 2018年07月27日 15時19分17秒
;FORMAT={-:-/ absolute / inch / decimal}
FMAT,2
INCH,TZ
T1C0.016
T2C0.020
T3C0.030
T4C0.039
T5C0.039
%
G90
G05
M72
T1
X4.216Y-3.0096
X4.3774Y-3.3955
X4.3931Y-3.2085
X4.462Y-2.8541
X4.462Y-2.9329
X4.5211Y-3.2144
X4.6471Y-3.0451
X4.6549Y-3.0766
X4.6746Y-3.236
X4.7337Y-3.0766
X4.7455Y-3.0451
X4.7671Y-3.1455
T2
X4.0191Y-2.9624
X4.0191Y-3.0116
X4.0191Y-3.0608
X4.0191Y-3.11
X4.0191Y-3.1592
X4.0191Y-3.2085
X4.0191Y-3.2577
X4.0191Y-3.3069
X4.0191Y-3.3561
X4.0191Y-3.4053
X4.4955Y-3.5214
X4.5447Y-3.5214
X4.5939Y-3.5214
X4.6431Y-3.5214
X4.6923Y-3.5214
T3
X4.5703Y-3.0805
X4.5703Y-3.1592
X4.5703Y-3.238
X4.5703Y-3.3167
T5
X4.3144Y-2.9151
X4.401Y-2.8679
T4
X3.8573Y-2.8992G85X3.8573Y-2.8756
G05
X3.8573Y-3.5291G85X3.8573Y-3.5055
G05
T0
M30
