G04 #@! TF.FileFunction,Copper,L2,Bot,Signal*
%FSLAX46Y46*%
G04 Gerber Fmt 4.6, Leading zero omitted, Abs format (unit mm)*
G04 Created by KiCad (PCBNEW 4.0.2+dfsg1-stable) date 2018年07月27日 15時19分14秒*
%MOMM*%
G01*
G04 APERTURE LIST*
%ADD10C,0.100000*%
%ADD11O,1.500000X1.200000*%
%ADD12C,1.500000*%
%ADD13R,0.800000X0.800000*%
%ADD14O,0.800000X0.800000*%
%ADD15O,2.000000X3.000000*%
%ADD16C,0.600000*%
%ADD17C,1.399540*%
%ADD18C,0.203200*%
%ADD19C,0.381000*%
%ADD20C,0.127000*%
G04 APERTURE END LIST*
D10*
D11*
X116085600Y-84244800D03*
X116085600Y-82244800D03*
D12*
X116085600Y-80244800D03*
X116085600Y-78244800D03*
D13*
X102085600Y-75244800D03*
D14*
X102085600Y-76494800D03*
X102085600Y-77744800D03*
X102085600Y-78994800D03*
X102085600Y-80244800D03*
X102085600Y-81494800D03*
X102085600Y-82744800D03*
X102085600Y-83994800D03*
X102085600Y-85244800D03*
X102085600Y-86494800D03*
D13*
X114185600Y-89444800D03*
D14*
X115435600Y-89444800D03*
X116685600Y-89444800D03*
X117935600Y-89444800D03*
X119185600Y-89444800D03*
D15*
X97975600Y-73339800D03*
X97975600Y-89339800D03*
D16*
X120535600Y-77344800D03*
X118035600Y-77344800D03*
X118735600Y-82194800D03*
X114835600Y-81644800D03*
X118235600Y-78144800D03*
X120235600Y-78144800D03*
D17*
X111785600Y-72844800D03*
X109585600Y-74044800D03*
D16*
X111585600Y-81494800D03*
X111185600Y-86244800D03*
X121085600Y-79894800D03*
X107085600Y-76444800D03*
X113335600Y-72494800D03*
X113335600Y-74494800D03*
D18*
X120085600Y-77344800D02*
X120535600Y-77344800D01*
X118035600Y-77344800D02*
X120085600Y-77344800D01*
X116661800Y-81321000D02*
X116735600Y-81394800D01*
X117935600Y-81394800D02*
X116735600Y-81394800D01*
X118735600Y-82194800D02*
X117935600Y-81394800D01*
X116735600Y-81394800D02*
X116685600Y-81344800D01*
X115135600Y-81344800D02*
X115167700Y-81344800D01*
X115135600Y-81344800D02*
X114835600Y-81644800D01*
X115191500Y-81321000D02*
X116661800Y-81321000D01*
X115167700Y-81344800D02*
X115191500Y-81321000D01*
X118235600Y-78144800D02*
X120235600Y-78144800D01*
D19*
X110585600Y-72844800D02*
X111785600Y-72844800D01*
X109585600Y-73844800D02*
X110585600Y-72844800D01*
X109585600Y-74044800D02*
X109585600Y-73844800D01*
X114335600Y-84244800D02*
X116085600Y-84244800D01*
X111585600Y-81494800D02*
X114335600Y-84244800D01*
D18*
X103685600Y-86494800D02*
X102085600Y-86494800D01*
X110935600Y-86494800D02*
X103685600Y-86494800D01*
X111185600Y-86244800D02*
X110935600Y-86494800D01*
D20*
X103685600Y-86494800D02*
X103585600Y-86494800D01*
D18*
X116085600Y-80244800D02*
X120735600Y-80244800D01*
X120735600Y-80244800D02*
X121085600Y-79894800D01*
X107085600Y-76444800D02*
X110385600Y-79744800D01*
X110385600Y-79744800D02*
X115585600Y-79744800D01*
D20*
X115585600Y-79744800D02*
X116085600Y-80244800D01*
X107435600Y-76794800D02*
X107085600Y-76444800D01*
D18*
X113335600Y-74494800D02*
X113335600Y-72494800D01*
M02*
