G04 #@! TF.FileFunction,Soldermask,Top*
%FSLAX46Y46*%
G04 Gerber Fmt 4.6, Leading zero omitted, Abs format (unit mm)*
G04 Created by KiCad (PCBNEW 4.0.2+dfsg1-stable) date 2018年07月27日 15時19分14秒*
%MOMM*%
G01*
G04 APERTURE LIST*
%ADD10C,0.100000*%
%ADD11O,1.900000X1.600000*%
%ADD12C,1.900000*%
%ADD13R,1.200000X1.150000*%
%ADD14R,1.200000X1.200000*%
%ADD15O,1.200000X1.200000*%
%ADD16R,0.900000X1.300000*%
%ADD17R,2.150000X0.850000*%
%ADD18R,2.600000X3.000000*%
%ADD19R,2.400000X1.000000*%
%ADD20O,2.400000X3.400000*%
G04 APERTURE END LIST*
D10*
D11*
X116085600Y-84244800D03*
X116085600Y-82244800D03*
D12*
X116085600Y-80244800D03*
X116085600Y-78244800D03*
D13*
X109535600Y-74444800D03*
X108035600Y-74444800D03*
X108035600Y-88044800D03*
X109535600Y-88044800D03*
D14*
X102085600Y-75244800D03*
D15*
X102085600Y-76494800D03*
X102085600Y-77744800D03*
X102085600Y-78994800D03*
X102085600Y-80244800D03*
X102085600Y-81494800D03*
X102085600Y-82744800D03*
X102085600Y-83994800D03*
X102085600Y-85244800D03*
X102085600Y-86494800D03*
D14*
X114185600Y-89444800D03*
D15*
X115435600Y-89444800D03*
X116685600Y-89444800D03*
X117935600Y-89444800D03*
X119185600Y-89444800D03*
D16*
X115935600Y-72444800D03*
X114435600Y-72444800D03*
X115935600Y-74644800D03*
X114435600Y-74644800D03*
X118035600Y-72444800D03*
X119535600Y-72444800D03*
X118035600Y-74644800D03*
X119535600Y-74644800D03*
X109635600Y-90244800D03*
X111135600Y-90244800D03*
D17*
X113435600Y-85469800D03*
X113435600Y-84819800D03*
X113435600Y-84169800D03*
X113435600Y-83519800D03*
X113435600Y-82869800D03*
X113435600Y-82219800D03*
X113435600Y-81569800D03*
X113435600Y-80919800D03*
X113435600Y-80269800D03*
X113435600Y-79619800D03*
X113435600Y-78969800D03*
X113435600Y-78319800D03*
X113435600Y-77669800D03*
X113435600Y-77019800D03*
X106235600Y-77019800D03*
X106235600Y-77669800D03*
X106235600Y-78319800D03*
X106235600Y-78969800D03*
X106235600Y-79619800D03*
X106235600Y-80269800D03*
X106235600Y-80919800D03*
X106235600Y-81569800D03*
X106235600Y-82219800D03*
X106235600Y-82869800D03*
X106235600Y-83519800D03*
X106235600Y-84169800D03*
X106235600Y-84819800D03*
X106235600Y-85469800D03*
D18*
X97385600Y-88344800D03*
D19*
X99585600Y-76744800D03*
X99585600Y-77744800D03*
X99585600Y-78744800D03*
X99585600Y-79744800D03*
X99585600Y-80744800D03*
X99585600Y-81744800D03*
X99585600Y-82744800D03*
X99585600Y-83744800D03*
X99585600Y-84744800D03*
X99585600Y-85744800D03*
D18*
X97385600Y-74144800D03*
D20*
X97975600Y-73339800D03*
X97975600Y-89339800D03*
M02*
