G04 #@! TF.FileFunction,Legend,Top*
%FSLAX46Y46*%
G04 Gerber Fmt 4.6, Leading zero omitted, Abs format (unit mm)*
G04 Created by KiCad (PCBNEW 4.0.2+dfsg1-stable) date 2018年07月27日 15時19分14秒*
%MOMM*%
G01*
G04 APERTURE LIST*
%ADD10C,0.100000*%
%ADD11C,0.090000*%
%ADD12C,0.200000*%
%ADD13C,0.002540*%
%ADD14C,0.150000*%
G04 APERTURE END LIST*
D10*
D11*
X123830600Y-75385276D02*
X123792505Y-75461467D01*
X123792505Y-75575752D01*
X123830600Y-75690038D01*
X123906790Y-75766229D01*
X123982981Y-75804324D01*
X124135362Y-75842419D01*
X124249648Y-75842419D01*
X124402029Y-75804324D01*
X124478219Y-75766229D01*
X124554410Y-75690038D01*
X124592505Y-75575752D01*
X124592505Y-75499562D01*
X124554410Y-75385276D01*
X124516314Y-75347181D01*
X124249648Y-75347181D01*
X124249648Y-75499562D01*
X124592505Y-74547181D02*
X124211552Y-74813848D01*
X124592505Y-75004324D02*
X123792505Y-75004324D01*
X123792505Y-74699562D01*
X123830600Y-74623371D01*
X123868695Y-74585276D01*
X123944886Y-74547181D01*
X124059171Y-74547181D01*
X124135362Y-74585276D01*
X124173457Y-74623371D01*
X124211552Y-74699562D01*
X124211552Y-75004324D01*
X123792505Y-74051943D02*
X123792505Y-73899562D01*
X123830600Y-73823371D01*
X123906790Y-73747181D01*
X124059171Y-73709086D01*
X124325838Y-73709086D01*
X124478219Y-73747181D01*
X124554410Y-73823371D01*
X124592505Y-73899562D01*
X124592505Y-74051943D01*
X124554410Y-74128133D01*
X124478219Y-74204324D01*
X124325838Y-74242419D01*
X124059171Y-74242419D01*
X123906790Y-74204324D01*
X123830600Y-74128133D01*
X123792505Y-74051943D01*
X123792505Y-73213848D02*
X123792505Y-73061467D01*
X123830600Y-72985276D01*
X123906790Y-72909086D01*
X124059171Y-72870991D01*
X124325838Y-72870991D01*
X124478219Y-72909086D01*
X124554410Y-72985276D01*
X124592505Y-73061467D01*
X124592505Y-73213848D01*
X124554410Y-73290038D01*
X124478219Y-73366229D01*
X124325838Y-73404324D01*
X124059171Y-73404324D01*
X123906790Y-73366229D01*
X123830600Y-73290038D01*
X123792505Y-73213848D01*
X123792505Y-72642420D02*
X124592505Y-72375753D01*
X123792505Y-72109086D01*
X124173457Y-71842420D02*
X124173457Y-71575753D01*
X124592505Y-71461467D02*
X124592505Y-71842420D01*
X123792505Y-71842420D01*
X123792505Y-71461467D01*
X126107267Y-75575752D02*
X126069171Y-75613848D01*
X125954886Y-75690038D01*
X125878695Y-75728133D01*
X125764410Y-75766229D01*
X125573933Y-75804324D01*
X125421552Y-75804324D01*
X125231076Y-75766229D01*
X125116790Y-75728133D01*
X125040600Y-75690038D01*
X124926314Y-75613848D01*
X124888219Y-75575752D01*
X125802505Y-75270991D02*
X125002505Y-75270991D01*
X125078695Y-74928134D02*
X125040600Y-74890039D01*
X125002505Y-74813848D01*
X125002505Y-74623372D01*
X125040600Y-74547182D01*
X125078695Y-74509086D01*
X125154886Y-74470991D01*
X125231076Y-74470991D01*
X125345362Y-74509086D01*
X125802505Y-74966229D01*
X125802505Y-74470991D01*
X125726314Y-73670991D02*
X125764410Y-73709086D01*
X125802505Y-73823372D01*
X125802505Y-73899562D01*
X125764410Y-74013848D01*
X125688219Y-74090039D01*
X125612029Y-74128134D01*
X125459648Y-74166229D01*
X125345362Y-74166229D01*
X125192981Y-74128134D01*
X125116790Y-74090039D01*
X125040600Y-74013848D01*
X125002505Y-73899562D01*
X125002505Y-73823372D01*
X125040600Y-73709086D01*
X125078695Y-73670991D01*
X126107267Y-73404324D02*
X126069171Y-73366229D01*
X125954886Y-73290039D01*
X125878695Y-73251943D01*
X125764410Y-73213848D01*
X125573933Y-73175753D01*
X125421552Y-73175753D01*
X125231076Y-73213848D01*
X125116790Y-73251943D01*
X125040600Y-73290039D01*
X124926314Y-73366229D01*
X124888219Y-73404324D01*
D12*
X84085600Y-66244800D02*
X85085600Y-67244800D01*
X85085600Y-67244800D02*
X85085600Y-69244800D01*
X85085600Y-95244800D02*
X84085600Y-96244800D01*
X84085600Y-96244800D02*
X80085600Y-96244800D01*
X80085600Y-96244800D02*
X79085600Y-95244800D01*
X79085600Y-67244800D02*
X80085600Y-66244800D01*
X85085600Y-95244800D02*
X85085600Y-75244800D01*
X85085600Y-67244800D02*
X84085600Y-66244800D01*
X84085600Y-66244800D02*
X80085600Y-66244800D01*
X80085600Y-66244800D02*
X79085600Y-67244800D01*
X79085600Y-75244800D02*
X79085600Y-95244800D01*
X79085600Y-67244800D02*
X79085600Y-75244800D01*
X85085600Y-69244800D02*
X85085600Y-75244800D01*
X99085600Y-69244800D02*
X99085600Y-75244800D01*
X93085600Y-67244800D02*
X93085600Y-75244800D01*
X93085600Y-75244800D02*
X93085600Y-95244800D01*
X94085600Y-66244800D02*
X93085600Y-67244800D01*
X98085600Y-66244800D02*
X94085600Y-66244800D01*
X99085600Y-67244800D02*
X98085600Y-66244800D01*
X99085600Y-95244800D02*
X99085600Y-75244800D01*
X93085600Y-67244800D02*
X94085600Y-66244800D01*
X94085600Y-96244800D02*
X93085600Y-95244800D01*
X98085600Y-96244800D02*
X94085600Y-96244800D01*
X99085600Y-95244800D02*
X98085600Y-96244800D01*
X99085600Y-67244800D02*
X99085600Y-69244800D01*
X98085600Y-66244800D02*
X99085600Y-67244800D01*
X85585600Y-96744800D02*
X85585600Y-65744800D01*
X126585600Y-96744800D02*
X85585600Y-96744800D01*
X85585600Y-65744800D02*
X126585600Y-65744800D01*
D13*
G36*
X79586240Y-79558240D02*
X79601480Y-79588720D01*
X79642120Y-79652220D01*
X79703080Y-79746200D01*
X79776740Y-79855420D01*
X79852940Y-79967180D01*
X79913900Y-80056080D01*
X79954540Y-80119580D01*
X79967240Y-80147520D01*
X79962160Y-80160220D01*
X79936760Y-80213560D01*
X79898660Y-80289760D01*
X79875800Y-80332940D01*
X79845320Y-80404060D01*
X79840240Y-80437080D01*
X79847860Y-80444700D01*
X79901200Y-80470100D01*
X79992640Y-80508200D01*
X80114560Y-80561540D01*
X80254260Y-80622500D01*
X80406660Y-80686000D01*
X80561600Y-80752040D01*
X80711460Y-80813000D01*
X80843540Y-80866340D01*
X80952760Y-80909520D01*
X81026420Y-80940000D01*
X81059440Y-80950160D01*
X81067060Y-80947620D01*
X81100080Y-80912060D01*
X81145800Y-80851100D01*
X81252480Y-80719020D01*
X81415040Y-80589480D01*
X81600460Y-80510740D01*
X81803660Y-80482800D01*
X81994160Y-80505660D01*
X82177040Y-80581860D01*
X82339600Y-80708860D01*
X82461520Y-80861260D01*
X82540260Y-81041600D01*
X82563120Y-81244800D01*
X82542800Y-81437840D01*
X82469140Y-81623260D01*
X82344680Y-81788360D01*
X82263400Y-81856940D01*
X82098300Y-81953460D01*
X81920500Y-82006800D01*
X81874780Y-82014420D01*
X81679200Y-82004260D01*
X81493780Y-81948380D01*
X81326140Y-81844240D01*
X81188980Y-81702000D01*
X81173740Y-81684220D01*
X81125480Y-81615640D01*
X81089920Y-81572460D01*
X81061980Y-81536900D01*
X80462540Y-81785820D01*
X80368560Y-81826460D01*
X80203460Y-81895040D01*
X80063760Y-81953460D01*
X79952000Y-82001720D01*
X79875800Y-82034740D01*
X79845320Y-82049980D01*
X79845320Y-82052520D01*
X79840240Y-82072840D01*
X79858020Y-82118560D01*
X79898660Y-82202380D01*
X79926600Y-82258260D01*
X79957080Y-82321760D01*
X79967240Y-82349700D01*
X79954540Y-82375100D01*
X79916440Y-82436060D01*
X79855480Y-82524960D01*
X79781820Y-82631640D01*
X79713240Y-82733240D01*
X79652280Y-82827220D01*
X79609100Y-82895800D01*
X79591320Y-82928820D01*
X79591320Y-82933900D01*
X79606560Y-82964380D01*
X79652280Y-83017720D01*
X79728480Y-83099000D01*
X79842780Y-83215840D01*
X79860560Y-83233620D01*
X79957080Y-83327600D01*
X80038360Y-83403800D01*
X80094240Y-83457140D01*
X80122180Y-83474920D01*
X80122180Y-83474920D01*
X80155200Y-83457140D01*
X80221240Y-83413960D01*
X80317760Y-83353000D01*
X80429520Y-83276800D01*
X80716540Y-83078680D01*
X80988320Y-83187900D01*
X81072140Y-83220920D01*
X81173740Y-83264100D01*
X81244860Y-83294580D01*
X81277880Y-83309820D01*
X81288040Y-83340300D01*
X81305820Y-83413960D01*
X81328680Y-83523180D01*
X81351540Y-83652720D01*
X81374400Y-83774640D01*
X81394720Y-83883860D01*
X81409960Y-83965140D01*
X81417580Y-84000700D01*
X81422660Y-84010860D01*
X81440440Y-84015940D01*
X81478540Y-84021020D01*
X81544580Y-84023560D01*
X81651260Y-84026100D01*
X81803660Y-84026100D01*
X81821440Y-84026100D01*
X81968760Y-84023560D01*
X82083060Y-84021020D01*
X82159260Y-84018480D01*
X82189740Y-84013400D01*
X82189740Y-84013400D01*
X82197360Y-83977840D01*
X82215140Y-83899100D01*
X82235460Y-83789880D01*
X82260860Y-83657800D01*
X82263400Y-83647640D01*
X82288800Y-83518100D01*
X82311660Y-83406340D01*
X82329440Y-83330140D01*
X82339600Y-83297120D01*
X82349760Y-83289500D01*
X82400560Y-83264100D01*
X82481840Y-83226000D01*
X82580900Y-83182820D01*
X82685040Y-83139640D01*
X82776480Y-83101540D01*
X82847600Y-83076140D01*
X82878080Y-83068520D01*
X82878080Y-83071060D01*
X82911100Y-83088840D01*
X82979680Y-83134560D01*
X83073660Y-83198060D01*
X83185420Y-83276800D01*
X83193040Y-83281880D01*
X83304800Y-83358080D01*
X83398780Y-83419040D01*
X83467360Y-83459680D01*
X83497840Y-83474920D01*
X83497840Y-83474920D01*
X83530860Y-83449520D01*
X83594360Y-83393640D01*
X83680720Y-83312360D01*
X83777240Y-83213300D01*
X83807720Y-83182820D01*
X83914400Y-83076140D01*
X83982980Y-82999940D01*
X84021080Y-82954220D01*
X84028700Y-82931360D01*
X84028700Y-82928820D01*
X84008380Y-82895800D01*
X83962660Y-82827220D01*
X83896620Y-82730700D01*
X83820420Y-82618940D01*
X83815340Y-82611320D01*
X83739140Y-82499560D01*
X83675640Y-82405580D01*
X83632460Y-82339540D01*
X83614680Y-82311600D01*
X83614680Y-82306520D01*
X83629920Y-82260800D01*
X83657860Y-82182060D01*
X83693420Y-82085540D01*
X83736600Y-81981400D01*
X83774700Y-81889960D01*
X83807720Y-81818840D01*
X83825500Y-81785820D01*
X83828040Y-81785820D01*
X83866140Y-81773120D01*
X83949960Y-81752800D01*
X84064260Y-81729940D01*
X84201420Y-81704540D01*
X84224280Y-81699460D01*
X84356360Y-81674060D01*
X84465580Y-81653740D01*
X84541780Y-81638500D01*
X84572260Y-81630880D01*
X84577340Y-81610560D01*
X84582420Y-81547060D01*
X84584960Y-81448000D01*
X84584960Y-81328620D01*
X84584960Y-81204160D01*
X84582420Y-81079700D01*
X84577340Y-80975560D01*
X84572260Y-80899360D01*
X84567180Y-80868880D01*
X84564640Y-80868880D01*
X84524000Y-80856180D01*
X84440180Y-80838400D01*
X84325880Y-80815540D01*
X84188720Y-80787600D01*
X84163320Y-80782520D01*
X84031240Y-80759660D01*
X83924560Y-80736800D01*
X83848360Y-80721560D01*
X83820420Y-80711400D01*
X83812800Y-80701240D01*
X83789940Y-80645360D01*
X83751840Y-80556460D01*
X83708660Y-80447240D01*
X83604520Y-80193240D01*
X83820420Y-79880820D01*
X83838200Y-79850340D01*
X83914400Y-79738580D01*
X83977900Y-79647140D01*
X84018540Y-79583640D01*
X84033780Y-79555700D01*
X84031240Y-79553160D01*
X84005840Y-79522680D01*
X83947420Y-79461720D01*
X83863600Y-79375360D01*
X83767080Y-79278840D01*
X83693420Y-79205180D01*
X83607060Y-79118820D01*
X83548640Y-79065480D01*
X83510540Y-79035000D01*
X83487680Y-79024840D01*
X83472440Y-79027380D01*
X83439420Y-79047700D01*
X83370840Y-79093420D01*
X83276860Y-79156920D01*
X83165100Y-79233120D01*
X83073660Y-79296620D01*
X82969520Y-79362660D01*
X82893320Y-79408380D01*
X82857760Y-79423620D01*
X82842520Y-79418540D01*
X82781560Y-79398220D01*
X82687580Y-79360120D01*
X82578360Y-79314400D01*
X82331980Y-79205180D01*
X82298960Y-79042620D01*
X82281180Y-78943560D01*
X82255780Y-78806400D01*
X82230380Y-78676860D01*
X82189740Y-78471120D01*
X81437900Y-78463500D01*
X81422660Y-78493980D01*
X81415040Y-78524460D01*
X81397260Y-78600660D01*
X81376940Y-78709880D01*
X81351540Y-78836880D01*
X81331220Y-78946100D01*
X81310900Y-79057860D01*
X81295660Y-79136600D01*
X81288040Y-79172160D01*
X81277880Y-79179780D01*
X81224540Y-79207720D01*
X81138180Y-79245820D01*
X81036580Y-79289000D01*
X80932440Y-79334720D01*
X80833380Y-79372820D01*
X80759720Y-79400760D01*
X80721620Y-79410920D01*
X80693680Y-79395680D01*
X80627640Y-79352500D01*
X80536200Y-79291540D01*
X80426980Y-79217880D01*
X80317760Y-79144220D01*
X80223780Y-79080720D01*
X80157740Y-79037540D01*
X80127260Y-79017220D01*
X80104400Y-79027380D01*
X80053600Y-79070560D01*
X79967240Y-79154380D01*
X79845320Y-79276300D01*
X79827540Y-79296620D01*
X79733560Y-79393140D01*
X79657360Y-79476960D01*
X79606560Y-79532840D01*
X79586240Y-79558240D01*
X79586240Y-79558240D01*
G37*
X79586240Y-79558240D02*
X79601480Y-79588720D01*
X79642120Y-79652220D01*
X79703080Y-79746200D01*
X79776740Y-79855420D01*
X79852940Y-79967180D01*
X79913900Y-80056080D01*
X79954540Y-80119580D01*
X79967240Y-80147520D01*
X79962160Y-80160220D01*
X79936760Y-80213560D01*
X79898660Y-80289760D01*
X79875800Y-80332940D01*
X79845320Y-80404060D01*
X79840240Y-80437080D01*
X79847860Y-80444700D01*
X79901200Y-80470100D01*
X79992640Y-80508200D01*
X80114560Y-80561540D01*
X80254260Y-80622500D01*
X80406660Y-80686000D01*
X80561600Y-80752040D01*
X80711460Y-80813000D01*
X80843540Y-80866340D01*
X80952760Y-80909520D01*
X81026420Y-80940000D01*
X81059440Y-80950160D01*
X81067060Y-80947620D01*
X81100080Y-80912060D01*
X81145800Y-80851100D01*
X81252480Y-80719020D01*
X81415040Y-80589480D01*
X81600460Y-80510740D01*
X81803660Y-80482800D01*
X81994160Y-80505660D01*
X82177040Y-80581860D01*
X82339600Y-80708860D01*
X82461520Y-80861260D01*
X82540260Y-81041600D01*
X82563120Y-81244800D01*
X82542800Y-81437840D01*
X82469140Y-81623260D01*
X82344680Y-81788360D01*
X82263400Y-81856940D01*
X82098300Y-81953460D01*
X81920500Y-82006800D01*
X81874780Y-82014420D01*
X81679200Y-82004260D01*
X81493780Y-81948380D01*
X81326140Y-81844240D01*
X81188980Y-81702000D01*
X81173740Y-81684220D01*
X81125480Y-81615640D01*
X81089920Y-81572460D01*
X81061980Y-81536900D01*
X80462540Y-81785820D01*
X80368560Y-81826460D01*
X80203460Y-81895040D01*
X80063760Y-81953460D01*
X79952000Y-82001720D01*
X79875800Y-82034740D01*
X79845320Y-82049980D01*
X79845320Y-82052520D01*
X79840240Y-82072840D01*
X79858020Y-82118560D01*
X79898660Y-82202380D01*
X79926600Y-82258260D01*
X79957080Y-82321760D01*
X79967240Y-82349700D01*
X79954540Y-82375100D01*
X79916440Y-82436060D01*
X79855480Y-82524960D01*
X79781820Y-82631640D01*
X79713240Y-82733240D01*
X79652280Y-82827220D01*
X79609100Y-82895800D01*
X79591320Y-82928820D01*
X79591320Y-82933900D01*
X79606560Y-82964380D01*
X79652280Y-83017720D01*
X79728480Y-83099000D01*
X79842780Y-83215840D01*
X79860560Y-83233620D01*
X79957080Y-83327600D01*
X80038360Y-83403800D01*
X80094240Y-83457140D01*
X80122180Y-83474920D01*
X80122180Y-83474920D01*
X80155200Y-83457140D01*
X80221240Y-83413960D01*
X80317760Y-83353000D01*
X80429520Y-83276800D01*
X80716540Y-83078680D01*
X80988320Y-83187900D01*
X81072140Y-83220920D01*
X81173740Y-83264100D01*
X81244860Y-83294580D01*
X81277880Y-83309820D01*
X81288040Y-83340300D01*
X81305820Y-83413960D01*
X81328680Y-83523180D01*
X81351540Y-83652720D01*
X81374400Y-83774640D01*
X81394720Y-83883860D01*
X81409960Y-83965140D01*
X81417580Y-84000700D01*
X81422660Y-84010860D01*
X81440440Y-84015940D01*
X81478540Y-84021020D01*
X81544580Y-84023560D01*
X81651260Y-84026100D01*
X81803660Y-84026100D01*
X81821440Y-84026100D01*
X81968760Y-84023560D01*
X82083060Y-84021020D01*
X82159260Y-84018480D01*
X82189740Y-84013400D01*
X82189740Y-84013400D01*
X82197360Y-83977840D01*
X82215140Y-83899100D01*
X82235460Y-83789880D01*
X82260860Y-83657800D01*
X82263400Y-83647640D01*
X82288800Y-83518100D01*
X82311660Y-83406340D01*
X82329440Y-83330140D01*
X82339600Y-83297120D01*
X82349760Y-83289500D01*
X82400560Y-83264100D01*
X82481840Y-83226000D01*
X82580900Y-83182820D01*
X82685040Y-83139640D01*
X82776480Y-83101540D01*
X82847600Y-83076140D01*
X82878080Y-83068520D01*
X82878080Y-83071060D01*
X82911100Y-83088840D01*
X82979680Y-83134560D01*
X83073660Y-83198060D01*
X83185420Y-83276800D01*
X83193040Y-83281880D01*
X83304800Y-83358080D01*
X83398780Y-83419040D01*
X83467360Y-83459680D01*
X83497840Y-83474920D01*
X83497840Y-83474920D01*
X83530860Y-83449520D01*
X83594360Y-83393640D01*
X83680720Y-83312360D01*
X83777240Y-83213300D01*
X83807720Y-83182820D01*
X83914400Y-83076140D01*
X83982980Y-82999940D01*
X84021080Y-82954220D01*
X84028700Y-82931360D01*
X84028700Y-82928820D01*
X84008380Y-82895800D01*
X83962660Y-82827220D01*
X83896620Y-82730700D01*
X83820420Y-82618940D01*
X83815340Y-82611320D01*
X83739140Y-82499560D01*
X83675640Y-82405580D01*
X83632460Y-82339540D01*
X83614680Y-82311600D01*
X83614680Y-82306520D01*
X83629920Y-82260800D01*
X83657860Y-82182060D01*
X83693420Y-82085540D01*
X83736600Y-81981400D01*
X83774700Y-81889960D01*
X83807720Y-81818840D01*
X83825500Y-81785820D01*
X83828040Y-81785820D01*
X83866140Y-81773120D01*
X83949960Y-81752800D01*
X84064260Y-81729940D01*
X84201420Y-81704540D01*
X84224280Y-81699460D01*
X84356360Y-81674060D01*
X84465580Y-81653740D01*
X84541780Y-81638500D01*
X84572260Y-81630880D01*
X84577340Y-81610560D01*
X84582420Y-81547060D01*
X84584960Y-81448000D01*
X84584960Y-81328620D01*
X84584960Y-81204160D01*
X84582420Y-81079700D01*
X84577340Y-80975560D01*
X84572260Y-80899360D01*
X84567180Y-80868880D01*
X84564640Y-80868880D01*
X84524000Y-80856180D01*
X84440180Y-80838400D01*
X84325880Y-80815540D01*
X84188720Y-80787600D01*
X84163320Y-80782520D01*
X84031240Y-80759660D01*
X83924560Y-80736800D01*
X83848360Y-80721560D01*
X83820420Y-80711400D01*
X83812800Y-80701240D01*
X83789940Y-80645360D01*
X83751840Y-80556460D01*
X83708660Y-80447240D01*
X83604520Y-80193240D01*
X83820420Y-79880820D01*
X83838200Y-79850340D01*
X83914400Y-79738580D01*
X83977900Y-79647140D01*
X84018540Y-79583640D01*
X84033780Y-79555700D01*
X84031240Y-79553160D01*
X84005840Y-79522680D01*
X83947420Y-79461720D01*
X83863600Y-79375360D01*
X83767080Y-79278840D01*
X83693420Y-79205180D01*
X83607060Y-79118820D01*
X83548640Y-79065480D01*
X83510540Y-79035000D01*
X83487680Y-79024840D01*
X83472440Y-79027380D01*
X83439420Y-79047700D01*
X83370840Y-79093420D01*
X83276860Y-79156920D01*
X83165100Y-79233120D01*
X83073660Y-79296620D01*
X82969520Y-79362660D01*
X82893320Y-79408380D01*
X82857760Y-79423620D01*
X82842520Y-79418540D01*
X82781560Y-79398220D01*
X82687580Y-79360120D01*
X82578360Y-79314400D01*
X82331980Y-79205180D01*
X82298960Y-79042620D01*
X82281180Y-78943560D01*
X82255780Y-78806400D01*
X82230380Y-78676860D01*
X82189740Y-78471120D01*
X81437900Y-78463500D01*
X81422660Y-78493980D01*
X81415040Y-78524460D01*
X81397260Y-78600660D01*
X81376940Y-78709880D01*
X81351540Y-78836880D01*
X81331220Y-78946100D01*
X81310900Y-79057860D01*
X81295660Y-79136600D01*
X81288040Y-79172160D01*
X81277880Y-79179780D01*
X81224540Y-79207720D01*
X81138180Y-79245820D01*
X81036580Y-79289000D01*
X80932440Y-79334720D01*
X80833380Y-79372820D01*
X80759720Y-79400760D01*
X80721620Y-79410920D01*
X80693680Y-79395680D01*
X80627640Y-79352500D01*
X80536200Y-79291540D01*
X80426980Y-79217880D01*
X80317760Y-79144220D01*
X80223780Y-79080720D01*
X80157740Y-79037540D01*
X80127260Y-79017220D01*
X80104400Y-79027380D01*
X80053600Y-79070560D01*
X79967240Y-79154380D01*
X79845320Y-79276300D01*
X79827540Y-79296620D01*
X79733560Y-79393140D01*
X79657360Y-79476960D01*
X79606560Y-79532840D01*
X79586240Y-79558240D01*
D14*
X124585600Y-86244800D02*
X124585600Y-84244800D01*
X124585600Y-84244800D02*
X123085600Y-84244800D01*
X123085600Y-84244800D02*
X123085600Y-78244800D01*
X116085600Y-86244800D02*
X114585600Y-86244800D01*
X114585600Y-86244800D02*
X114585600Y-85244800D01*
X114585600Y-85244800D02*
X116085600Y-85244800D01*
X116085600Y-85244800D02*
X116085600Y-77244800D01*
X116085600Y-77244800D02*
X114585600Y-77244800D01*
X114585600Y-77244800D02*
X114585600Y-76244800D01*
X114585600Y-76244800D02*
X124585600Y-76244800D01*
X124585600Y-76244800D02*
X124585600Y-78244800D01*
X124585600Y-78244800D02*
X123085600Y-78244800D01*
X124585600Y-86244800D02*
X116085600Y-86244800D01*
X109135600Y-75044800D02*
X108435600Y-75044800D01*
X108435600Y-73844800D02*
X109135600Y-73844800D01*
X108435600Y-87444800D02*
X109135600Y-87444800D01*
X109135600Y-88644800D02*
X108435600Y-88644800D01*
X102205600Y-73744800D02*
X104135600Y-73744800D01*
X104135600Y-73744800D02*
X104135600Y-87994800D01*
X104135600Y-87994800D02*
X100935600Y-87994800D01*
X100935600Y-87994800D02*
X100935600Y-75014800D01*
X100435600Y-75244800D02*
X99935600Y-75744800D01*
X99935600Y-75744800D02*
X99935600Y-74744800D01*
X99935600Y-74744800D02*
X100435600Y-75244800D01*
X112685600Y-89324800D02*
X112685600Y-87394800D01*
X112685600Y-87394800D02*
X120685600Y-87394800D01*
X120685600Y-87394800D02*
X120685600Y-90594800D01*
X120685600Y-90594800D02*
X113955600Y-90594800D01*
X114185600Y-91094800D02*
X114685600Y-91594800D01*
X114685600Y-91594800D02*
X113685600Y-91594800D01*
X113685600Y-91594800D02*
X114185600Y-91094800D01*
X114685600Y-71769800D02*
X115685600Y-71769800D01*
X115685600Y-73119800D02*
X114685600Y-73119800D01*
X114685600Y-73969800D02*
X115685600Y-73969800D01*
X115685600Y-75319800D02*
X114685600Y-75319800D01*
X119285600Y-73119800D02*
X118285600Y-73119800D01*
X118285600Y-71769800D02*
X119285600Y-71769800D01*
X119285600Y-75319800D02*
X118285600Y-75319800D01*
X118285600Y-73969800D02*
X119285600Y-73969800D01*
X110885600Y-90919800D02*
X109885600Y-90919800D01*
X109885600Y-89569800D02*
X110885600Y-89569800D01*
D13*
G36*
X87762040Y-89840160D02*
X87792520Y-89824920D01*
X87856020Y-89784280D01*
X87950000Y-89723320D01*
X88059220Y-89649660D01*
X88170980Y-89573460D01*
X88259880Y-89512500D01*
X88323380Y-89471860D01*
X88351320Y-89459160D01*
X88364020Y-89464240D01*
X88417360Y-89489640D01*
X88493560Y-89527740D01*
X88536740Y-89550600D01*
X88607860Y-89581080D01*
X88640880Y-89586160D01*
X88648500Y-89578540D01*
X88673900Y-89525200D01*
X88712000Y-89433760D01*
X88765340Y-89311840D01*
X88826300Y-89172140D01*
X88889800Y-89019740D01*
X88955840Y-88864800D01*
X89016800Y-88714940D01*
X89070140Y-88582860D01*
X89113320Y-88473640D01*
X89143800Y-88399980D01*
X89153960Y-88366960D01*
X89151420Y-88359340D01*
X89115860Y-88326320D01*
X89054900Y-88280600D01*
X88922820Y-88173920D01*
X88793280Y-88011360D01*
X88714540Y-87825940D01*
X88686600Y-87622740D01*
X88709460Y-87432240D01*
X88785660Y-87249360D01*
X88912660Y-87086800D01*
X89065060Y-86964880D01*
X89245400Y-86886140D01*
X89448600Y-86863280D01*
X89641640Y-86883600D01*
X89827060Y-86957260D01*
X89992160Y-87081720D01*
X90060740Y-87163000D01*
X90157260Y-87328100D01*
X90210600Y-87505900D01*
X90218220Y-87551620D01*
X90208060Y-87747200D01*
X90152180Y-87932620D01*
X90048040Y-88100260D01*
X89905800Y-88237420D01*
X89888020Y-88252660D01*
X89819440Y-88300920D01*
X89776260Y-88336480D01*
X89740700Y-88364420D01*
X89989620Y-88963860D01*
X90030260Y-89057840D01*
X90098840Y-89222940D01*
X90157260Y-89362640D01*
X90205520Y-89474400D01*
X90238540Y-89550600D01*
X90253780Y-89581080D01*
X90256320Y-89581080D01*
X90276640Y-89586160D01*
X90322360Y-89568380D01*
X90406180Y-89527740D01*
X90462060Y-89499800D01*
X90525560Y-89469320D01*
X90553500Y-89459160D01*
X90578900Y-89471860D01*
X90639860Y-89509960D01*
X90728760Y-89570920D01*
X90835440Y-89644580D01*
X90937040Y-89713160D01*
X91031020Y-89774120D01*
X91099600Y-89817300D01*
X91132620Y-89835080D01*
X91137700Y-89835080D01*
X91168180Y-89819840D01*
X91221520Y-89774120D01*
X91302800Y-89697920D01*
X91419640Y-89583620D01*
X91437420Y-89565840D01*
X91531400Y-89469320D01*
X91607600Y-89388040D01*
X91660940Y-89332160D01*
X91678720Y-89304220D01*
X91678720Y-89304220D01*
X91660940Y-89271200D01*
X91617760Y-89205160D01*
X91556800Y-89108640D01*
X91480600Y-88996880D01*
X91282480Y-88709860D01*
X91391700Y-88438080D01*
X91424720Y-88354260D01*
X91467900Y-88252660D01*
X91498380Y-88181540D01*
X91513620Y-88148520D01*
X91544100Y-88138360D01*
X91617760Y-88120580D01*
X91726980Y-88097720D01*
X91856520Y-88074860D01*
X91978440Y-88052000D01*
X92087660Y-88031680D01*
X92168940Y-88016440D01*
X92204500Y-88008820D01*
X92214660Y-88003740D01*
X92219740Y-87985960D01*
X92224820Y-87947860D01*
X92227360Y-87881820D01*
X92229900Y-87775140D01*
X92229900Y-87622740D01*
X92229900Y-87604960D01*
X92227360Y-87457640D01*
X92224820Y-87343340D01*
X92222280Y-87267140D01*
X92217200Y-87236660D01*
X92217200Y-87236660D01*
X92181640Y-87229040D01*
X92102900Y-87211260D01*
X91993680Y-87190940D01*
X91861600Y-87165540D01*
X91851440Y-87163000D01*
X91721900Y-87137600D01*
X91610140Y-87114740D01*
X91533940Y-87096960D01*
X91500920Y-87086800D01*
X91493300Y-87076640D01*
X91467900Y-87025840D01*
X91429800Y-86944560D01*
X91386620Y-86845500D01*
X91343440Y-86741360D01*
X91305340Y-86649920D01*
X91279940Y-86578800D01*
X91272320Y-86548320D01*
X91274860Y-86548320D01*
X91292640Y-86515300D01*
X91338360Y-86446720D01*
X91401860Y-86352740D01*
X91480600Y-86240980D01*
X91485680Y-86233360D01*
X91561880Y-86121600D01*
X91622840Y-86027620D01*
X91663480Y-85959040D01*
X91678720Y-85928560D01*
X91678720Y-85928560D01*
X91653320Y-85895540D01*
X91597440Y-85832040D01*
X91516160Y-85745680D01*
X91417100Y-85649160D01*
X91386620Y-85618680D01*
X91279940Y-85512000D01*
X91203740Y-85443420D01*
X91158020Y-85405320D01*
X91135160Y-85397700D01*
X91132620Y-85397700D01*
X91099600Y-85418020D01*
X91031020Y-85463740D01*
X90934500Y-85529780D01*
X90822740Y-85605980D01*
X90815120Y-85611060D01*
X90703360Y-85687260D01*
X90609380Y-85750760D01*
X90543340Y-85793940D01*
X90515400Y-85811720D01*
X90510320Y-85811720D01*
X90464600Y-85796480D01*
X90385860Y-85768540D01*
X90289340Y-85732980D01*
X90185200Y-85689800D01*
X90093760Y-85651700D01*
X90022640Y-85618680D01*
X89989620Y-85600900D01*
X89989620Y-85598360D01*
X89976920Y-85560260D01*
X89956600Y-85476440D01*
X89933740Y-85362140D01*
X89908340Y-85224980D01*
X89903260Y-85202120D01*
X89877860Y-85070040D01*
X89857540Y-84960820D01*
X89842300Y-84884620D01*
X89834680Y-84854140D01*
X89814360Y-84849060D01*
X89750860Y-84843980D01*
X89651800Y-84841440D01*
X89532420Y-84841440D01*
X89407960Y-84841440D01*
X89283500Y-84843980D01*
X89179360Y-84849060D01*
X89103160Y-84854140D01*
X89072680Y-84859220D01*
X89072680Y-84861760D01*
X89059980Y-84902400D01*
X89042200Y-84986220D01*
X89019340Y-85100520D01*
X88991400Y-85237680D01*
X88986320Y-85263080D01*
X88963460Y-85395160D01*
X88940600Y-85501840D01*
X88925360Y-85578040D01*
X88915200Y-85605980D01*
X88905040Y-85613600D01*
X88849160Y-85636460D01*
X88760260Y-85674560D01*
X88651040Y-85717740D01*
X88397040Y-85821880D01*
X88084620Y-85605980D01*
X88054140Y-85588200D01*
X87942380Y-85512000D01*
X87850940Y-85448500D01*
X87787440Y-85407860D01*
X87759500Y-85392620D01*
X87756960Y-85395160D01*
X87726480Y-85420560D01*
X87665520Y-85478980D01*
X87579160Y-85562800D01*
X87482640Y-85659320D01*
X87408980Y-85732980D01*
X87322620Y-85819340D01*
X87269280Y-85877760D01*
X87238800Y-85915860D01*
X87228640Y-85938720D01*
X87231180Y-85953960D01*
X87251500Y-85986980D01*
X87297220Y-86055560D01*
X87360720Y-86149540D01*
X87436920Y-86261300D01*
X87500420Y-86352740D01*
X87566460Y-86456880D01*
X87612180Y-86533080D01*
X87627420Y-86568640D01*
X87622340Y-86583880D01*
X87602020Y-86644840D01*
X87563920Y-86738820D01*
X87518200Y-86848040D01*
X87408980Y-87094420D01*
X87246420Y-87127440D01*
X87147360Y-87145220D01*
X87010200Y-87170620D01*
X86880660Y-87196020D01*
X86674920Y-87236660D01*
X86667300Y-87988500D01*
X86697780Y-88003740D01*
X86728260Y-88011360D01*
X86804460Y-88029140D01*
X86913680Y-88049460D01*
X87040680Y-88074860D01*
X87149900Y-88095180D01*
X87261660Y-88115500D01*
X87340400Y-88130740D01*
X87375960Y-88138360D01*
X87383580Y-88148520D01*
X87411520Y-88201860D01*
X87449620Y-88288220D01*
X87492800Y-88389820D01*
X87538520Y-88493960D01*
X87576620Y-88593020D01*
X87604560Y-88666680D01*
X87614720Y-88704780D01*
X87599480Y-88732720D01*
X87556300Y-88798760D01*
X87495340Y-88890200D01*
X87421680Y-88999420D01*
X87348020Y-89108640D01*
X87284520Y-89202620D01*
X87241340Y-89268660D01*
X87221020Y-89299140D01*
X87231180Y-89322000D01*
X87274360Y-89372800D01*
X87358180Y-89459160D01*
X87480100Y-89581080D01*
X87500420Y-89598860D01*
X87596940Y-89692840D01*
X87680760Y-89769040D01*
X87736640Y-89819840D01*
X87762040Y-89840160D01*
X87762040Y-89840160D01*
G37*
X87762040Y-89840160D02*
X87792520Y-89824920D01*
X87856020Y-89784280D01*
X87950000Y-89723320D01*
X88059220Y-89649660D01*
X88170980Y-89573460D01*
X88259880Y-89512500D01*
X88323380Y-89471860D01*
X88351320Y-89459160D01*
X88364020Y-89464240D01*
X88417360Y-89489640D01*
X88493560Y-89527740D01*
X88536740Y-89550600D01*
X88607860Y-89581080D01*
X88640880Y-89586160D01*
X88648500Y-89578540D01*
X88673900Y-89525200D01*
X88712000Y-89433760D01*
X88765340Y-89311840D01*
X88826300Y-89172140D01*
X88889800Y-89019740D01*
X88955840Y-88864800D01*
X89016800Y-88714940D01*
X89070140Y-88582860D01*
X89113320Y-88473640D01*
X89143800Y-88399980D01*
X89153960Y-88366960D01*
X89151420Y-88359340D01*
X89115860Y-88326320D01*
X89054900Y-88280600D01*
X88922820Y-88173920D01*
X88793280Y-88011360D01*
X88714540Y-87825940D01*
X88686600Y-87622740D01*
X88709460Y-87432240D01*
X88785660Y-87249360D01*
X88912660Y-87086800D01*
X89065060Y-86964880D01*
X89245400Y-86886140D01*
X89448600Y-86863280D01*
X89641640Y-86883600D01*
X89827060Y-86957260D01*
X89992160Y-87081720D01*
X90060740Y-87163000D01*
X90157260Y-87328100D01*
X90210600Y-87505900D01*
X90218220Y-87551620D01*
X90208060Y-87747200D01*
X90152180Y-87932620D01*
X90048040Y-88100260D01*
X89905800Y-88237420D01*
X89888020Y-88252660D01*
X89819440Y-88300920D01*
X89776260Y-88336480D01*
X89740700Y-88364420D01*
X89989620Y-88963860D01*
X90030260Y-89057840D01*
X90098840Y-89222940D01*
X90157260Y-89362640D01*
X90205520Y-89474400D01*
X90238540Y-89550600D01*
X90253780Y-89581080D01*
X90256320Y-89581080D01*
X90276640Y-89586160D01*
X90322360Y-89568380D01*
X90406180Y-89527740D01*
X90462060Y-89499800D01*
X90525560Y-89469320D01*
X90553500Y-89459160D01*
X90578900Y-89471860D01*
X90639860Y-89509960D01*
X90728760Y-89570920D01*
X90835440Y-89644580D01*
X90937040Y-89713160D01*
X91031020Y-89774120D01*
X91099600Y-89817300D01*
X91132620Y-89835080D01*
X91137700Y-89835080D01*
X91168180Y-89819840D01*
X91221520Y-89774120D01*
X91302800Y-89697920D01*
X91419640Y-89583620D01*
X91437420Y-89565840D01*
X91531400Y-89469320D01*
X91607600Y-89388040D01*
X91660940Y-89332160D01*
X91678720Y-89304220D01*
X91678720Y-89304220D01*
X91660940Y-89271200D01*
X91617760Y-89205160D01*
X91556800Y-89108640D01*
X91480600Y-88996880D01*
X91282480Y-88709860D01*
X91391700Y-88438080D01*
X91424720Y-88354260D01*
X91467900Y-88252660D01*
X91498380Y-88181540D01*
X91513620Y-88148520D01*
X91544100Y-88138360D01*
X91617760Y-88120580D01*
X91726980Y-88097720D01*
X91856520Y-88074860D01*
X91978440Y-88052000D01*
X92087660Y-88031680D01*
X92168940Y-88016440D01*
X92204500Y-88008820D01*
X92214660Y-88003740D01*
X92219740Y-87985960D01*
X92224820Y-87947860D01*
X92227360Y-87881820D01*
X92229900Y-87775140D01*
X92229900Y-87622740D01*
X92229900Y-87604960D01*
X92227360Y-87457640D01*
X92224820Y-87343340D01*
X92222280Y-87267140D01*
X92217200Y-87236660D01*
X92217200Y-87236660D01*
X92181640Y-87229040D01*
X92102900Y-87211260D01*
X91993680Y-87190940D01*
X91861600Y-87165540D01*
X91851440Y-87163000D01*
X91721900Y-87137600D01*
X91610140Y-87114740D01*
X91533940Y-87096960D01*
X91500920Y-87086800D01*
X91493300Y-87076640D01*
X91467900Y-87025840D01*
X91429800Y-86944560D01*
X91386620Y-86845500D01*
X91343440Y-86741360D01*
X91305340Y-86649920D01*
X91279940Y-86578800D01*
X91272320Y-86548320D01*
X91274860Y-86548320D01*
X91292640Y-86515300D01*
X91338360Y-86446720D01*
X91401860Y-86352740D01*
X91480600Y-86240980D01*
X91485680Y-86233360D01*
X91561880Y-86121600D01*
X91622840Y-86027620D01*
X91663480Y-85959040D01*
X91678720Y-85928560D01*
X91678720Y-85928560D01*
X91653320Y-85895540D01*
X91597440Y-85832040D01*
X91516160Y-85745680D01*
X91417100Y-85649160D01*
X91386620Y-85618680D01*
X91279940Y-85512000D01*
X91203740Y-85443420D01*
X91158020Y-85405320D01*
X91135160Y-85397700D01*
X91132620Y-85397700D01*
X91099600Y-85418020D01*
X91031020Y-85463740D01*
X90934500Y-85529780D01*
X90822740Y-85605980D01*
X90815120Y-85611060D01*
X90703360Y-85687260D01*
X90609380Y-85750760D01*
X90543340Y-85793940D01*
X90515400Y-85811720D01*
X90510320Y-85811720D01*
X90464600Y-85796480D01*
X90385860Y-85768540D01*
X90289340Y-85732980D01*
X90185200Y-85689800D01*
X90093760Y-85651700D01*
X90022640Y-85618680D01*
X89989620Y-85600900D01*
X89989620Y-85598360D01*
X89976920Y-85560260D01*
X89956600Y-85476440D01*
X89933740Y-85362140D01*
X89908340Y-85224980D01*
X89903260Y-85202120D01*
X89877860Y-85070040D01*
X89857540Y-84960820D01*
X89842300Y-84884620D01*
X89834680Y-84854140D01*
X89814360Y-84849060D01*
X89750860Y-84843980D01*
X89651800Y-84841440D01*
X89532420Y-84841440D01*
X89407960Y-84841440D01*
X89283500Y-84843980D01*
X89179360Y-84849060D01*
X89103160Y-84854140D01*
X89072680Y-84859220D01*
X89072680Y-84861760D01*
X89059980Y-84902400D01*
X89042200Y-84986220D01*
X89019340Y-85100520D01*
X88991400Y-85237680D01*
X88986320Y-85263080D01*
X88963460Y-85395160D01*
X88940600Y-85501840D01*
X88925360Y-85578040D01*
X88915200Y-85605980D01*
X88905040Y-85613600D01*
X88849160Y-85636460D01*
X88760260Y-85674560D01*
X88651040Y-85717740D01*
X88397040Y-85821880D01*
X88084620Y-85605980D01*
X88054140Y-85588200D01*
X87942380Y-85512000D01*
X87850940Y-85448500D01*
X87787440Y-85407860D01*
X87759500Y-85392620D01*
X87756960Y-85395160D01*
X87726480Y-85420560D01*
X87665520Y-85478980D01*
X87579160Y-85562800D01*
X87482640Y-85659320D01*
X87408980Y-85732980D01*
X87322620Y-85819340D01*
X87269280Y-85877760D01*
X87238800Y-85915860D01*
X87228640Y-85938720D01*
X87231180Y-85953960D01*
X87251500Y-85986980D01*
X87297220Y-86055560D01*
X87360720Y-86149540D01*
X87436920Y-86261300D01*
X87500420Y-86352740D01*
X87566460Y-86456880D01*
X87612180Y-86533080D01*
X87627420Y-86568640D01*
X87622340Y-86583880D01*
X87602020Y-86644840D01*
X87563920Y-86738820D01*
X87518200Y-86848040D01*
X87408980Y-87094420D01*
X87246420Y-87127440D01*
X87147360Y-87145220D01*
X87010200Y-87170620D01*
X86880660Y-87196020D01*
X86674920Y-87236660D01*
X86667300Y-87988500D01*
X86697780Y-88003740D01*
X86728260Y-88011360D01*
X86804460Y-88029140D01*
X86913680Y-88049460D01*
X87040680Y-88074860D01*
X87149900Y-88095180D01*
X87261660Y-88115500D01*
X87340400Y-88130740D01*
X87375960Y-88138360D01*
X87383580Y-88148520D01*
X87411520Y-88201860D01*
X87449620Y-88288220D01*
X87492800Y-88389820D01*
X87538520Y-88493960D01*
X87576620Y-88593020D01*
X87604560Y-88666680D01*
X87614720Y-88704780D01*
X87599480Y-88732720D01*
X87556300Y-88798760D01*
X87495340Y-88890200D01*
X87421680Y-88999420D01*
X87348020Y-89108640D01*
X87284520Y-89202620D01*
X87241340Y-89268660D01*
X87221020Y-89299140D01*
X87231180Y-89322000D01*
X87274360Y-89372800D01*
X87358180Y-89459160D01*
X87480100Y-89581080D01*
X87500420Y-89598860D01*
X87596940Y-89692840D01*
X87680760Y-89769040D01*
X87736640Y-89819840D01*
X87762040Y-89840160D01*
D14*
X112710600Y-86569800D02*
X112710600Y-85919800D01*
X106960600Y-86569800D02*
X106960600Y-85919800D01*
X106960600Y-75919800D02*
X106960600Y-76569800D01*
X112710600Y-75919800D02*
X112710600Y-76569800D01*
X112710600Y-86569800D02*
X106960600Y-86569800D01*
X112710600Y-75919800D02*
X106960600Y-75919800D01*
X112710600Y-85919800D02*
X114310600Y-85919800D01*
X99085600Y-81244800D02*
X99085600Y-89244800D01*
X99085600Y-89244800D02*
X93085600Y-89244800D01*
X93085600Y-89244800D02*
X93085600Y-73244800D01*
X93085600Y-73244800D02*
X99085600Y-73244800D01*
X99085600Y-73244800D02*
X99085600Y-81244800D01*
X125335600Y-84916229D02*
X125287981Y-84973372D01*
X125287981Y-85059086D01*
X125335600Y-85144801D01*
X125430838Y-85201943D01*
X125526076Y-85230515D01*
X125716552Y-85259086D01*
X125859410Y-85259086D01*
X126049886Y-85230515D01*
X126145124Y-85201943D01*
X126240362Y-85144801D01*
X126287981Y-85059086D01*
X126287981Y-85001943D01*
X126240362Y-84916229D01*
X126192743Y-84887658D01*
X125859410Y-84887658D01*
X125859410Y-85001943D01*
X126287981Y-84630515D02*
X125287981Y-84630515D01*
X126287981Y-84287658D01*
X125287981Y-84287658D01*
X126287981Y-84001944D02*
X125287981Y-84001944D01*
X125287981Y-83859087D01*
X125335600Y-83773372D01*
X125430838Y-83716230D01*
X125526076Y-83687658D01*
X125716552Y-83659087D01*
X125859410Y-83659087D01*
X126049886Y-83687658D01*
X126145124Y-83716230D01*
X126240362Y-83773372D01*
X126287981Y-83859087D01*
X126287981Y-84001944D01*
X125287981Y-83030515D02*
X126287981Y-82830515D01*
X125287981Y-82630515D01*
X126192743Y-82087658D02*
X126240362Y-82116229D01*
X126287981Y-82201943D01*
X126287981Y-82259086D01*
X126240362Y-82344801D01*
X126145124Y-82401943D01*
X126049886Y-82430515D01*
X125859410Y-82459086D01*
X125716552Y-82459086D01*
X125526076Y-82430515D01*
X125430838Y-82401943D01*
X125335600Y-82344801D01*
X125287981Y-82259086D01*
X125287981Y-82201943D01*
X125335600Y-82116229D01*
X125383219Y-82087658D01*
X126192743Y-81487658D02*
X126240362Y-81516229D01*
X126287981Y-81601943D01*
X126287981Y-81659086D01*
X126240362Y-81744801D01*
X126145124Y-81801943D01*
X126049886Y-81830515D01*
X125859410Y-81859086D01*
X125716552Y-81859086D01*
X125526076Y-81830515D01*
X125430838Y-81801943D01*
X125335600Y-81744801D01*
X125287981Y-81659086D01*
X125287981Y-81601943D01*
X125335600Y-81516229D01*
X125383219Y-81487658D01*
X126240362Y-80801943D02*
X126287981Y-80716229D01*
X126287981Y-80573372D01*
X126240362Y-80516229D01*
X126192743Y-80487658D01*
X126097505Y-80459086D01*
X126002267Y-80459086D01*
X125907029Y-80487658D01*
X125859410Y-80516229D01*
X125811790Y-80573372D01*
X125764171Y-80687658D01*
X125716552Y-80744800D01*
X125668933Y-80773372D01*
X125573695Y-80801943D01*
X125478457Y-80801943D01*
X125383219Y-80773372D01*
X125335600Y-80744800D01*
X125287981Y-80687658D01*
X125287981Y-80544800D01*
X125335600Y-80459086D01*
X126287981Y-80201943D02*
X125287981Y-80201943D01*
X125287981Y-80059086D01*
X125335600Y-79973371D01*
X125430838Y-79916229D01*
X125526076Y-79887657D01*
X125716552Y-79859086D01*
X125859410Y-79859086D01*
X126049886Y-79887657D01*
X126145124Y-79916229D01*
X126240362Y-79973371D01*
X126287981Y-80059086D01*
X126287981Y-80201943D01*
X126002267Y-79630514D02*
X126002267Y-79344800D01*
X126287981Y-79687657D02*
X125287981Y-79487657D01*
X126287981Y-79287657D01*
X126240362Y-78659085D02*
X126287981Y-78573371D01*
X126287981Y-78430514D01*
X126240362Y-78373371D01*
X126192743Y-78344800D01*
X126097505Y-78316228D01*
X126002267Y-78316228D01*
X125907029Y-78344800D01*
X125859410Y-78373371D01*
X125811790Y-78430514D01*
X125764171Y-78544800D01*
X125716552Y-78601942D01*
X125668933Y-78630514D01*
X125573695Y-78659085D01*
X125478457Y-78659085D01*
X125383219Y-78630514D01*
X125335600Y-78601942D01*
X125287981Y-78544800D01*
X125287981Y-78401942D01*
X125335600Y-78316228D01*
X126192743Y-77716228D02*
X126240362Y-77744799D01*
X126287981Y-77830513D01*
X126287981Y-77887656D01*
X126240362Y-77973371D01*
X126145124Y-78030513D01*
X126049886Y-78059085D01*
X125859410Y-78087656D01*
X125716552Y-78087656D01*
X125526076Y-78059085D01*
X125430838Y-78030513D01*
X125335600Y-77973371D01*
X125287981Y-77887656D01*
X125287981Y-77830513D01*
X125335600Y-77744799D01*
X125383219Y-77716228D01*
X126287981Y-77173371D02*
X126287981Y-77459085D01*
X125287981Y-77459085D01*
X108418934Y-73001943D02*
X108371315Y-73049562D01*
X108228458Y-73097181D01*
X108133220Y-73097181D01*
X107990362Y-73049562D01*
X107895124Y-72954324D01*
X107847505Y-72859086D01*
X107799886Y-72668610D01*
X107799886Y-72525752D01*
X107847505Y-72335276D01*
X107895124Y-72240038D01*
X107990362Y-72144800D01*
X108133220Y-72097181D01*
X108228458Y-72097181D01*
X108371315Y-72144800D01*
X108418934Y-72192419D01*
X109371315Y-73097181D02*
X108799886Y-73097181D01*
X109085600Y-73097181D02*
X109085600Y-72097181D01*
X108990362Y-72240038D01*
X108895124Y-72335276D01*
X108799886Y-72382895D01*
X106018934Y-89601943D02*
X105971315Y-89649562D01*
X105828458Y-89697181D01*
X105733220Y-89697181D01*
X105590362Y-89649562D01*
X105495124Y-89554324D01*
X105447505Y-89459086D01*
X105399886Y-89268610D01*
X105399886Y-89125752D01*
X105447505Y-88935276D01*
X105495124Y-88840038D01*
X105590362Y-88744800D01*
X105733220Y-88697181D01*
X105828458Y-88697181D01*
X105971315Y-88744800D01*
X106018934Y-88792419D01*
X106399886Y-88792419D02*
X106447505Y-88744800D01*
X106542743Y-88697181D01*
X106780839Y-88697181D01*
X106876077Y-88744800D01*
X106923696Y-88792419D01*
X106971315Y-88887657D01*
X106971315Y-88982895D01*
X106923696Y-89125752D01*
X106352267Y-89697181D01*
X106971315Y-89697181D01*
X100187981Y-81607895D02*
X99187981Y-81607895D01*
X99187981Y-81226942D01*
X99235600Y-81131704D01*
X99283219Y-81084085D01*
X99378457Y-81036466D01*
X99521314Y-81036466D01*
X99616552Y-81084085D01*
X99664171Y-81131704D01*
X99711790Y-81226942D01*
X99711790Y-81607895D01*
X100187981Y-80084085D02*
X100187981Y-80655514D01*
X100187981Y-80369800D02*
X99187981Y-80369800D01*
X99330838Y-80465038D01*
X99426076Y-80560276D01*
X99473695Y-80655514D01*
X115947505Y-92247181D02*
X115947505Y-91247181D01*
X116328458Y-91247181D01*
X116423696Y-91294800D01*
X116471315Y-91342419D01*
X116518934Y-91437657D01*
X116518934Y-91580514D01*
X116471315Y-91675752D01*
X116423696Y-91723371D01*
X116328458Y-91770990D01*
X115947505Y-91770990D01*
X116899886Y-91342419D02*
X116947505Y-91294800D01*
X117042743Y-91247181D01*
X117280839Y-91247181D01*
X117376077Y-91294800D01*
X117423696Y-91342419D01*
X117471315Y-91437657D01*
X117471315Y-91532895D01*
X117423696Y-91675752D01*
X116852267Y-92247181D01*
X117471315Y-92247181D01*
X113818934Y-69497181D02*
X113485600Y-69020990D01*
X113247505Y-69497181D02*
X113247505Y-68497181D01*
X113628458Y-68497181D01*
X113723696Y-68544800D01*
X113771315Y-68592419D01*
X113818934Y-68687657D01*
X113818934Y-68830514D01*
X113771315Y-68925752D01*
X113723696Y-68973371D01*
X113628458Y-69020990D01*
X113247505Y-69020990D01*
X114771315Y-69497181D02*
X114199886Y-69497181D01*
X114485600Y-69497181D02*
X114485600Y-68497181D01*
X114390362Y-68640038D01*
X114295124Y-68735276D01*
X114199886Y-68782895D01*
X115571314Y-70773371D02*
X116237981Y-70773371D01*
X115190362Y-71011467D02*
X115904648Y-71249562D01*
X115904648Y-70630514D01*
X116142743Y-70249562D02*
X116190362Y-70201943D01*
X116237981Y-70249562D01*
X116190362Y-70297181D01*
X116142743Y-70249562D01*
X116237981Y-70249562D01*
X115237981Y-69868610D02*
X115237981Y-69201943D01*
X116237981Y-69630515D01*
X116237981Y-68820991D02*
X115237981Y-68820991D01*
X115857029Y-68725753D02*
X116237981Y-68440038D01*
X115571314Y-68440038D02*
X115952267Y-68820991D01*
X113818934Y-71297181D02*
X113485600Y-70820990D01*
X113247505Y-71297181D02*
X113247505Y-70297181D01*
X113628458Y-70297181D01*
X113723696Y-70344800D01*
X113771315Y-70392419D01*
X113818934Y-70487657D01*
X113818934Y-70630514D01*
X113771315Y-70725752D01*
X113723696Y-70773371D01*
X113628458Y-70820990D01*
X113247505Y-70820990D01*
X114199886Y-70392419D02*
X114247505Y-70344800D01*
X114342743Y-70297181D01*
X114580839Y-70297181D01*
X114676077Y-70344800D01*
X114723696Y-70392419D01*
X114771315Y-70487657D01*
X114771315Y-70582895D01*
X114723696Y-70725752D01*
X114152267Y-71297181D01*
X114771315Y-71297181D01*
X117818934Y-69497181D02*
X117485600Y-69020990D01*
X117247505Y-69497181D02*
X117247505Y-68497181D01*
X117628458Y-68497181D01*
X117723696Y-68544800D01*
X117771315Y-68592419D01*
X117818934Y-68687657D01*
X117818934Y-68830514D01*
X117771315Y-68925752D01*
X117723696Y-68973371D01*
X117628458Y-69020990D01*
X117247505Y-69020990D01*
X118152267Y-68497181D02*
X118771315Y-68497181D01*
X118437981Y-68878133D01*
X118580839Y-68878133D01*
X118676077Y-68925752D01*
X118723696Y-68973371D01*
X118771315Y-69068610D01*
X118771315Y-69306705D01*
X118723696Y-69401943D01*
X118676077Y-69449562D01*
X118580839Y-69497181D01*
X118295124Y-69497181D01*
X118199886Y-69449562D01*
X118152267Y-69401943D01*
X117818934Y-71097181D02*
X117485600Y-70620990D01*
X117247505Y-71097181D02*
X117247505Y-70097181D01*
X117628458Y-70097181D01*
X117723696Y-70144800D01*
X117771315Y-70192419D01*
X117818934Y-70287657D01*
X117818934Y-70430514D01*
X117771315Y-70525752D01*
X117723696Y-70573371D01*
X117628458Y-70620990D01*
X117247505Y-70620990D01*
X118676077Y-70430514D02*
X118676077Y-71097181D01*
X118437981Y-70049562D02*
X118199886Y-70763848D01*
X118818934Y-70763848D01*
X120037981Y-70678133D02*
X120037981Y-71249562D01*
X120037981Y-70963848D02*
X119037981Y-70963848D01*
X119180838Y-71059086D01*
X119276076Y-71154324D01*
X119323695Y-71249562D01*
X119942743Y-70249562D02*
X119990362Y-70201943D01*
X120037981Y-70249562D01*
X119990362Y-70297181D01*
X119942743Y-70249562D01*
X120037981Y-70249562D01*
X119466552Y-69630515D02*
X119418933Y-69725753D01*
X119371314Y-69773372D01*
X119276076Y-69820991D01*
X119228457Y-69820991D01*
X119133219Y-69773372D01*
X119085600Y-69725753D01*
X119037981Y-69630515D01*
X119037981Y-69440038D01*
X119085600Y-69344800D01*
X119133219Y-69297181D01*
X119228457Y-69249562D01*
X119276076Y-69249562D01*
X119371314Y-69297181D01*
X119418933Y-69344800D01*
X119466552Y-69440038D01*
X119466552Y-69630515D01*
X119514171Y-69725753D01*
X119561790Y-69773372D01*
X119657029Y-69820991D01*
X119847505Y-69820991D01*
X119942743Y-69773372D01*
X119990362Y-69725753D01*
X120037981Y-69630515D01*
X120037981Y-69440038D01*
X119990362Y-69344800D01*
X119942743Y-69297181D01*
X119847505Y-69249562D01*
X119657029Y-69249562D01*
X119561790Y-69297181D01*
X119514171Y-69344800D01*
X119466552Y-69440038D01*
X120037981Y-68820991D02*
X119037981Y-68820991D01*
X119657029Y-68725753D02*
X120037981Y-68440038D01*
X119371314Y-68440038D02*
X119752267Y-68820991D01*
X109818934Y-92297181D02*
X109485600Y-91820990D01*
X109247505Y-92297181D02*
X109247505Y-91297181D01*
X109628458Y-91297181D01*
X109723696Y-91344800D01*
X109771315Y-91392419D01*
X109818934Y-91487657D01*
X109818934Y-91630514D01*
X109771315Y-91725752D01*
X109723696Y-91773371D01*
X109628458Y-91820990D01*
X109247505Y-91820990D01*
X110723696Y-91297181D02*
X110247505Y-91297181D01*
X110199886Y-91773371D01*
X110247505Y-91725752D01*
X110342743Y-91678133D01*
X110580839Y-91678133D01*
X110676077Y-91725752D01*
X110723696Y-91773371D01*
X110771315Y-91868610D01*
X110771315Y-92106705D01*
X110723696Y-92201943D01*
X110676077Y-92249562D01*
X110580839Y-92297181D01*
X110342743Y-92297181D01*
X110247505Y-92249562D01*
X110199886Y-92201943D01*
X111333219Y-93811467D02*
X111285600Y-93763848D01*
X111237981Y-93668610D01*
X111237981Y-93430514D01*
X111285600Y-93335276D01*
X111333219Y-93287657D01*
X111428457Y-93240038D01*
X111523695Y-93240038D01*
X111666552Y-93287657D01*
X112237981Y-93859086D01*
X112237981Y-93240038D01*
X111237981Y-92620991D02*
X111237981Y-92525752D01*
X111285600Y-92430514D01*
X111333219Y-92382895D01*
X111428457Y-92335276D01*
X111618933Y-92287657D01*
X111857029Y-92287657D01*
X112047505Y-92335276D01*
X112142743Y-92382895D01*
X112190362Y-92430514D01*
X112237981Y-92525752D01*
X112237981Y-92620991D01*
X112190362Y-92716229D01*
X112142743Y-92763848D01*
X112047505Y-92811467D01*
X111857029Y-92859086D01*
X111618933Y-92859086D01*
X111428457Y-92811467D01*
X111333219Y-92763848D01*
X111285600Y-92716229D01*
X111237981Y-92620991D01*
X112237981Y-91859086D02*
X111237981Y-91859086D01*
X111857029Y-91763848D02*
X112237981Y-91478133D01*
X111571314Y-91478133D02*
X111952267Y-91859086D01*
X109073695Y-86947181D02*
X109073695Y-87756705D01*
X109121314Y-87851943D01*
X109168933Y-87899562D01*
X109264171Y-87947181D01*
X109454648Y-87947181D01*
X109549886Y-87899562D01*
X109597505Y-87851943D01*
X109645124Y-87756705D01*
X109645124Y-86947181D01*
X110645124Y-87947181D02*
X110073695Y-87947181D01*
X110359409Y-87947181D02*
X110359409Y-86947181D01*
X110264171Y-87090038D01*
X110168933Y-87185276D01*
X110073695Y-87232895D01*
M02*
